<svg xmlns="http://www.w3.org/2000/svg" version="1.1" baseProfile="full" width="1024" height="590" style="user-select: none; height: 590px; width: 1024px;"><path d="M 518.5 544.3 L 518.5 20" fill="none" stroke="#333" stroke-width="1" paint-order="stroke" stroke-opacity="1" stroke-dasharray="" stroke-linecap="round" stroke-linejoin="miter" stroke-miterlimit="10" clip-path="none"></path><path d="M 518.6133 544.5 L 983.04 544.5" fill="none" stroke="#000" stroke-width="1" paint-order="stroke" stroke-opacity="1" stroke-dasharray="" stroke-linecap="round" stroke-linejoin="miter" stroke-miterlimit="10" clip-path="none"></path><path d="M 518.6133 544.5 L 513.6133 544.5" fill="none" stroke="#333" stroke-width="1" paint-order="stroke" stroke-opacity="1" stroke-dasharray="" stroke-linecap="butt" stroke-linejoin="miter" stroke-miterlimit="10" clip-path="none"></path><path d="M 518.6133 511.5 L 513.6133 511.5" fill="none" stroke="#333" stroke-width="1" paint-order="stroke" stroke-opacity="1" stroke-dasharray="" stroke-linecap="butt" stroke-linejoin="miter" stroke-miterlimit="10" clip-path="none"></path><path d="M 518.6133 479.5 L 513.6133 479.5" fill="none" stroke="#333" stroke-width="1" paint-order="stroke" stroke-opacity="1" stroke-dasharray="" stroke-linecap="butt" stroke-linejoin="miter" stroke-miterlimit="10" clip-path="none"></path><path d="M 518.6133 446.5 L 513.6133 446.5" fill="none" stroke="#333" stroke-width="1" paint-order="stroke" stroke-opacity="1" stroke-dasharray="" stroke-linecap="butt" stroke-linejoin="miter" stroke-miterlimit="10" clip-path="none"></path><path d="M 518.6133 413.5 L 513.6133 413.5" fill="none" stroke="#333" stroke-width="1" paint-order="stroke" stroke-opacity="1" stroke-dasharray="" stroke-linecap="butt" stroke-linejoin="miter" stroke-miterlimit="10" clip-path="none"></path><path d="M 518.6133 380.5 L 513.6133 380.5" fill="none" stroke="#333" stroke-width="1" paint-order="stroke" stroke-opacity="1" stroke-dasharray="" stroke-linecap="butt" stroke-linejoin="miter" stroke-miterlimit="10" clip-path="none"></path><path d="M 518.6133 347.5 L 513.6133 347.5" fill="none" stroke="#333" stroke-width="1" paint-order="stroke" stroke-opacity="1" stroke-dasharray="" stroke-linecap="butt" stroke-linejoin="miter" stroke-miterlimit="10" clip-path="none"></path><path d="M 518.6133 315.5 L 513.6133 315.5" fill="none" stroke="#333" stroke-width="1" paint-order="stroke" stroke-opacity="1" stroke-dasharray="" stroke-linecap="butt" stroke-linejoin="miter" stroke-miterlimit="10" clip-path="none"></path><path d="M 518.6133 282.5 L 513.6133 282.5" fill="none" stroke="#333" stroke-width="1" paint-order="stroke" stroke-opacity="1" stroke-dasharray="" stroke-linecap="butt" stroke-linejoin="miter" stroke-miterlimit="10" clip-path="none"></path><path d="M 518.6133 249.5 L 513.6133 249.5" fill="none" stroke="#333" stroke-width="1" paint-order="stroke" stroke-opacity="1" stroke-dasharray="" stroke-linecap="butt" stroke-linejoin="miter" stroke-miterlimit="10" clip-path="none"></path><path d="M 518.6133 216.5 L 513.6133 216.5" fill="none" stroke="#333" stroke-width="1" paint-order="stroke" stroke-opacity="1" stroke-dasharray="" stroke-linecap="butt" stroke-linejoin="miter" stroke-miterlimit="10" clip-path="none"></path><path d="M 518.6133 184.5 L 513.6133 184.5" fill="none" stroke="#333" stroke-width="1" paint-order="stroke" stroke-opacity="1" stroke-dasharray="" stroke-linecap="butt" stroke-linejoin="miter" stroke-miterlimit="10" clip-path="none"></path><path d="M 518.6133 151.5 L 513.6133 151.5" fill="none" stroke="#333" stroke-width="1" paint-order="stroke" stroke-opacity="1" stroke-dasharray="" stroke-linecap="butt" stroke-linejoin="miter" stroke-miterlimit="10" clip-path="none"></path><path d="M 518.6133 118.5 L 513.6133 118.5" fill="none" stroke="#333" stroke-width="1" paint-order="stroke" stroke-opacity="1" stroke-dasharray="" stroke-linecap="butt" stroke-linejoin="miter" stroke-miterlimit="10" clip-path="none"></path><path d="M 518.6133 85.5 L 513.6133 85.5" fill="none" stroke="#333" stroke-width="1" paint-order="stroke" stroke-opacity="1" stroke-dasharray="" stroke-linecap="butt" stroke-linejoin="miter" stroke-miterlimit="10" clip-path="none"></path><path d="M 518.6133 53.5 L 513.6133 53.5" fill="none" stroke="#333" stroke-width="1" paint-order="stroke" stroke-opacity="1" stroke-dasharray="" stroke-linecap="butt" stroke-linejoin="miter" stroke-miterlimit="10" clip-path="none"></path><path d="M 518.6133 20.5 L 513.6133 20.5" fill="none" stroke="#333" stroke-width="1" paint-order="stroke" stroke-opacity="1" stroke-dasharray="" stroke-linecap="butt" stroke-linejoin="miter" stroke-miterlimit="10" clip-path="none"></path><path d="M 518.5 544.3 L 518.5 549.3" fill="none" stroke="#333" stroke-width="1" paint-order="stroke" stroke-opacity="1" stroke-dasharray="" stroke-linecap="butt" stroke-linejoin="miter" stroke-miterlimit="10" clip-path="none"></path><path d="M 634.5 544.3 L 634.5 549.3" fill="none" stroke="#333" stroke-width="1" paint-order="stroke" stroke-opacity="1" stroke-dasharray="" stroke-linecap="butt" stroke-linejoin="miter" stroke-miterlimit="10" clip-path="none"></path><path d="M 751.5 544.3 L 751.5 549.3" fill="none" stroke="#333" stroke-width="1" paint-order="stroke" stroke-opacity="1" stroke-dasharray="" stroke-linecap="butt" stroke-linejoin="miter" stroke-miterlimit="10" clip-path="none"></path><path d="M 867.5 544.3 L 867.5 549.3" fill="none" stroke="#333" stroke-width="1" paint-order="stroke" stroke-opacity="1" stroke-dasharray="" stroke-linecap="butt" stroke-linejoin="miter" stroke-miterlimit="10" clip-path="none"></path><path d="M 983.5 544.3 L 983.5 549.3" fill="none" stroke="#333" stroke-width="1" paint-order="stroke" stroke-opacity="1" stroke-dasharray="" stroke-linecap="butt" stroke-linejoin="miter" stroke-miterlimit="10" clip-path="none"></path><text fill="#333333" fill-opacity="1" stroke="none" transform="matrix(1,2.4492937051703357e-16,-2.4492937051703357e-16,1,510.61328125,527.9155883789062)" alignment-baseline="middle" x="0" y="0" clip-path="none" style="font-style: normal; font-variant: normal; font-weight: normal; font-stretch: normal; font-size: 20px; line-height: normal; font-family: Arial;"><tspan alignment-baseline="middle" text-anchor="end" x="0" y="0">system process GO:0003008 </tspan></text><text fill="#333333" fill-opacity="1" stroke="none" transform="matrix(1,2.4492937051703357e-16,-2.4492937051703357e-16,1,510.61328125,495.1468505859375)" alignment-baseline="middle" x="0" y="0" clip-path="none" style="font-style: normal; font-variant: normal; font-weight: normal; font-stretch: normal; font-size: 20px; line-height: normal; font-family: Arial;"><tspan alignment-baseline="middle" text-anchor="end" x="0" y="0">biosynthetic process GO:0009058 </tspan></text><text fill="#333333" fill-opacity="1" stroke="none" transform="matrix(1,2.4492937051703357e-16,-2.4492937051703357e-16,1,510.61328125,462.37811279296875)" alignment-baseline="middle" x="0" y="0" clip-path="none" style="font-style: normal; font-variant: normal; font-weight: normal; font-stretch: normal; font-size: 20px; line-height: normal; font-family: Arial;"><tspan alignment-baseline="middle" text-anchor="end" x="0" y="0">multicellular organismal process GO:0032501 </tspan></text><text fill="#333333" fill-opacity="1" stroke="none" transform="matrix(1,2.4492937051703357e-16,-2.4492937051703357e-16,1,510.61328125,429.609375)" alignment-baseline="middle" x="0" y="0" clip-path="none" style="font-style: normal; font-variant: normal; font-weight: normal; font-stretch: normal; font-size: 20px; line-height: normal; font-family: Arial;"><tspan alignment-baseline="middle" text-anchor="end" x="0" y="0">membrane GO:0016020 </tspan></text><text fill="#333333" fill-opacity="1" stroke="none" transform="matrix(1,2.4492937051703357e-16,-2.4492937051703357e-16,1,510.61328125,396.8406066894531)" alignment-baseline="middle" x="0" y="0" clip-path="none" style="font-style: normal; font-variant: normal; font-weight: normal; font-stretch: normal; font-size: 20px; line-height: normal; font-family: Arial;"><tspan alignment-baseline="middle" text-anchor="end" x="0" y="0">catabolic process GO:0009056 </tspan></text><text fill="#333333" fill-opacity="1" stroke="none" transform="matrix(1,2.4492937051703357e-16,-2.4492937051703357e-16,1,510.61328125,364.0718688964844)" alignment-baseline="middle" x="0" y="0" clip-path="none" style="font-style: normal; font-variant: normal; font-weight: normal; font-stretch: normal; font-size: 20px; line-height: normal; font-family: Arial;"><tspan alignment-baseline="middle" text-anchor="end" x="0" y="0">oxidoreductase activity GO:0016491 </tspan></text><text fill="#333333" fill-opacity="1" stroke="none" transform="matrix(1,2.4492937051703357e-16,-2.4492937051703357e-16,1,510.61328125,331.3031005859375)" alignment-baseline="middle" x="0" y="0" clip-path="none" style="font-style: normal; font-variant: normal; font-weight: normal; font-stretch: normal; font-size: 20px; line-height: normal; font-family: Arial;"><tspan alignment-baseline="middle" text-anchor="end" x="0" y="0">cellular process GO:0009987 </tspan></text><text fill="#333333" fill-opacity="1" stroke="none" transform="matrix(1,2.4492937051703357e-16,-2.4492937051703357e-16,1,510.61328125,298.53436279296875)" alignment-baseline="middle" x="0" y="0" clip-path="none" style="font-style: normal; font-variant: normal; font-weight: normal; font-stretch: normal; font-size: 20px; line-height: normal; font-family: Arial;"><tspan alignment-baseline="middle" text-anchor="end" x="0" y="0">cell GO:0005623 </tspan></text><text fill="#333333" fill-opacity="1" stroke="none" transform="matrix(1,2.4492937051703357e-16,-2.4492937051703357e-16,1,510.61328125,265.765625)" alignment-baseline="middle" x="0" y="0" clip-path="none" style="font-style: normal; font-variant: normal; font-weight: normal; font-stretch: normal; font-size: 20px; line-height: normal; font-family: Arial;"><tspan alignment-baseline="middle" text-anchor="end" x="0" y="0">cell part GO:0044464 </tspan></text><text fill="#333333" fill-opacity="1" stroke="none" transform="matrix(1,2.4492937051703357e-16,-2.4492937051703357e-16,1,510.61328125,232.99685668945312)" alignment-baseline="middle" x="0" y="0" clip-path="none" style="font-style: normal; font-variant: normal; font-weight: normal; font-stretch: normal; font-size: 20px; line-height: normal; font-family: Arial;"><tspan alignment-baseline="middle" text-anchor="end" x="0" y="0">carbohydrate binding GO:0030246 </tspan></text><text fill="#333333" fill-opacity="1" stroke="none" transform="matrix(1,2.4492937051703357e-16,-2.4492937051703357e-16,1,510.61328125,200.22811889648438)" alignment-baseline="middle" x="0" y="0" clip-path="none" style="font-style: normal; font-variant: normal; font-weight: normal; font-stretch: normal; font-size: 20px; line-height: normal; font-family: Arial;"><tspan alignment-baseline="middle" text-anchor="end" x="0" y="0">catalytic activity GO:0003824 </tspan></text><text fill="#333333" fill-opacity="1" stroke="none" transform="matrix(1,2.4492937051703357e-16,-2.4492937051703357e-16,1,510.61328125,167.4593505859375)" alignment-baseline="middle" x="0" y="0" clip-path="none" style="font-style: normal; font-variant: normal; font-weight: normal; font-stretch: normal; font-size: 20px; line-height: normal; font-family: Arial;"><tspan alignment-baseline="middle" text-anchor="end" x="0" y="0">transferase activity GO:0016740 </tspan></text><text fill="#333333" fill-opacity="1" stroke="none" transform="matrix(1,2.4492937051703357e-16,-2.4492937051703357e-16,1,510.61328125,134.69061279296875)" alignment-baseline="middle" x="0" y="0" clip-path="none" style="font-style: normal; font-variant: normal; font-weight: normal; font-stretch: normal; font-size: 20px; line-height: normal; font-family: Arial;"><tspan alignment-baseline="middle" text-anchor="end" x="0" y="0">binding GO:0005488 </tspan></text><text fill="#333333" fill-opacity="1" stroke="none" transform="matrix(1,2.4492937051703357e-16,-2.4492937051703357e-16,1,510.61328125,101.921875)" alignment-baseline="middle" x="0" y="0" clip-path="none" style="font-style: normal; font-variant: normal; font-weight: normal; font-stretch: normal; font-size: 20px; line-height: normal; font-family: Arial;"><tspan alignment-baseline="middle" text-anchor="end" x="0" y="0">cellular metabolic process GO:0044237 </tspan></text><text fill="#333333" fill-opacity="1" stroke="none" transform="matrix(1,2.4492937051703357e-16,-2.4492937051703357e-16,1,510.61328125,69.15310668945312)" alignment-baseline="middle" x="0" y="0" clip-path="none" style="font-style: normal; font-variant: normal; font-weight: normal; font-stretch: normal; font-size: 20px; line-height: normal; font-family: Arial;"><tspan alignment-baseline="middle" text-anchor="end" x="0" y="0">nitrogen compound metabolic process GO:0006807 </tspan></text><text fill="#333333" fill-opacity="1" stroke="none" transform="matrix(1,2.4492937051703357e-16,-2.4492937051703357e-16,1,510.61328125,36.384368896484375)" alignment-baseline="middle" x="0" y="0" clip-path="none" style="font-style: normal; font-variant: normal; font-weight: normal; font-stretch: normal; font-size: 20px; line-height: normal; font-family: Arial;"><tspan alignment-baseline="middle" text-anchor="end" x="0" y="0">nucleic acid binding GO:0003676 </tspan></text><text fill="#333" fill-opacity="1" stroke="none" transform="matrix(1,0,0,1,518.61328125,552.2999877929688)" alignment-baseline="hanging" x="0" y="0" clip-path="none" style="font-style: normal; font-variant: normal; font-weight: normal; font-stretch: normal; font-size: 20px; line-height: normal; font-family: Arial;"><tspan alignment-baseline="hanging" text-anchor="middle" x="0" y="0">0</tspan></text><text fill="#333" fill-opacity="1" stroke="none" transform="matrix(1,0,0,1,634.719970703125,552.2999877929688)" alignment-baseline="hanging" x="0" y="0" clip-path="none" style="font-style: normal; font-variant: normal; font-weight: normal; font-stretch: normal; font-size: 20px; line-height: normal; font-family: Arial;"><tspan alignment-baseline="hanging" text-anchor="middle" x="0" y="0">1</tspan></text><text fill="#333" fill-opacity="1" stroke="none" transform="matrix(1,0,0,1,750.82666015625,552.2999877929688)" alignment-baseline="hanging" x="0" y="0" clip-path="none" style="font-style: normal; font-variant: normal; font-weight: normal; font-stretch: normal; font-size: 20px; line-height: normal; font-family: Arial;"><tspan alignment-baseline="hanging" text-anchor="middle" x="0" y="0">2</tspan></text><text fill="#333" fill-opacity="1" stroke="none" transform="matrix(1,0,0,1,866.933349609375,552.2999877929688)" alignment-baseline="hanging" x="0" y="0" clip-path="none" style="font-style: normal; font-variant: normal; font-weight: normal; font-stretch: normal; font-size: 20px; line-height: normal; font-family: Arial;"><tspan alignment-baseline="hanging" text-anchor="middle" x="0" y="0">3</tspan></text><text fill="#333" fill-opacity="1" stroke="none" transform="matrix(1,0,0,1,983.0400390625,552.2999877929688)" alignment-baseline="hanging" x="0" y="0" clip-path="none" style="font-style: normal; font-variant: normal; font-weight: normal; font-stretch: normal; font-size: 20px; line-height: normal; font-family: Arial;"><tspan alignment-baseline="hanging" text-anchor="middle" x="0" y="0">4</tspan></text><path d="M 518.6133 452.3781 L 695.4438 452.3781 L 695.4438 472.3781 L 518.6133 472.3781 L 518.6133 452.3781 Z" fill="#c00001" fill-opacity="undefined" stroke="#ccc" stroke-width="0" paint-order="stroke" stroke-opacity="undefined" stroke-dasharray="" stroke-linecap="butt" stroke-linejoin="miter" stroke-miterlimit="10" clip-path="none"></path><path d="M 518.6133 321.3031 L 711.2343 321.3031 L 711.2343 341.3031 L 518.6133 341.3031 L 518.6133 321.3031 Z" fill="#c00001" fill-opacity="undefined" stroke="#ccc" stroke-width="0" paint-order="stroke" stroke-opacity="undefined" stroke-dasharray="" stroke-linecap="butt" stroke-linejoin="miter" stroke-miterlimit="10" clip-path="none"></path><path d="M 518.6133 288.5344 L 753.7293 288.5344 L 753.7293 308.5344 L 518.6133 308.5344 L 518.6133 288.5344 Z" fill="#c00001" fill-opacity="undefined" stroke="#ccc" stroke-width="0" paint-order="stroke" stroke-opacity="undefined" stroke-dasharray="" stroke-linecap="butt" stroke-linejoin="miter" stroke-miterlimit="10" clip-path="none"></path><path d="M 518.6133 255.7656 L 753.7293 255.7656 L 753.7293 275.7656 L 518.6133 275.7656 L 518.6133 255.7656 Z" fill="#c00001" fill-opacity="undefined" stroke="#ccc" stroke-width="0" paint-order="stroke" stroke-opacity="undefined" stroke-dasharray="" stroke-linecap="butt" stroke-linejoin="miter" stroke-miterlimit="10" clip-path="none"></path><path d="M 518.6133 190.2281 L 773.0029999999999 190.2281 L 773.0029999999999 210.2281 L 518.6133 210.2281 L 518.6133 190.2281 Z" fill="#c00001" fill-opacity="undefined" stroke="#ccc" stroke-width="0" paint-order="stroke" stroke-opacity="undefined" stroke-dasharray="" stroke-linecap="butt" stroke-linejoin="miter" stroke-miterlimit="10" clip-path="none"></path><path d="M 518.6133 124.6906 L 804.2357 124.6906 L 804.2357 144.69060000000002 L 518.6133 144.69060000000002 L 518.6133 124.6906 Z" fill="#c00001" fill-opacity="undefined" stroke="#ccc" stroke-width="0" paint-order="stroke" stroke-opacity="undefined" stroke-dasharray="" stroke-linecap="butt" stroke-linejoin="miter" stroke-miterlimit="10" clip-path="none"></path><path d="M 518.6133 517.9156 L 683.9492 517.9156 L 683.9492 537.9156 L 518.6133 537.9156 L 518.6133 517.9156 Z" fill="#c00001" fill-opacity="undefined" stroke="#ccc" stroke-width="0" paint-order="stroke" stroke-opacity="undefined" stroke-dasharray="" stroke-linecap="butt" stroke-linejoin="miter" stroke-miterlimit="10" clip-path="none"></path><path d="M 518.6133 485.1469 L 694.2827 485.1469 L 694.2827 505.1469 L 518.6133 505.1469 L 518.6133 485.1469 Z" fill="#c00001" fill-opacity="undefined" stroke="#ccc" stroke-width="0" paint-order="stroke" stroke-opacity="undefined" stroke-dasharray="" stroke-linecap="butt" stroke-linejoin="miter" stroke-miterlimit="10" clip-path="none"></path><path d="M 518.6133 419.6094 L 705.1967 419.6094 L 705.1967 439.6094 L 518.6133 439.6094 L 518.6133 419.6094 Z" fill="#c00001" fill-opacity="undefined" stroke="#ccc" stroke-width="0" paint-order="stroke" stroke-opacity="undefined" stroke-dasharray="" stroke-linecap="butt" stroke-linejoin="miter" stroke-miterlimit="10" clip-path="none"></path><path d="M 518.6133 386.8406 L 706.0095 386.8406 L 706.0095 406.8406 L 518.6133 406.8406 L 518.6133 386.8406 Z" fill="#c00001" fill-opacity="undefined" stroke="#ccc" stroke-width="0" paint-order="stroke" stroke-opacity="undefined" stroke-dasharray="" stroke-linecap="butt" stroke-linejoin="miter" stroke-miterlimit="10" clip-path="none"></path><path d="M 518.6133 354.0719 L 709.1444 354.0719 L 709.1444 374.0719 L 518.6133 374.0719 L 518.6133 354.0719 Z" fill="#c00001" fill-opacity="undefined" stroke="#ccc" stroke-width="0" paint-order="stroke" stroke-opacity="undefined" stroke-dasharray="" stroke-linecap="butt" stroke-linejoin="miter" stroke-miterlimit="10" clip-path="none"></path><path d="M 518.6133 222.9969 L 755.1225999999999 222.9969 L 755.1225999999999 242.9969 L 518.6133 242.9969 L 518.6133 222.9969 Z" fill="#c00001" fill-opacity="undefined" stroke="#ccc" stroke-width="0" paint-order="stroke" stroke-opacity="undefined" stroke-dasharray="" stroke-linecap="butt" stroke-linejoin="miter" stroke-miterlimit="10" clip-path="none"></path><path d="M 518.6133 157.4594 L 779.3888999999999 157.4594 L 779.3888999999999 177.4594 L 518.6133 177.4594 L 518.6133 157.4594 Z" fill="#c00001" fill-opacity="undefined" stroke="#ccc" stroke-width="0" paint-order="stroke" stroke-opacity="undefined" stroke-dasharray="" stroke-linecap="butt" stroke-linejoin="miter" stroke-miterlimit="10" clip-path="none"></path><path d="M 518.6133 91.9219 L 859.9668999999999 91.9219 L 859.9668999999999 111.9219 L 518.6133 111.9219 L 518.6133 91.9219 Z" fill="#c00001" fill-opacity="undefined" stroke="#ccc" stroke-width="0" paint-order="stroke" stroke-opacity="undefined" stroke-dasharray="" stroke-linecap="butt" stroke-linejoin="miter" stroke-miterlimit="10" clip-path="none"></path><path d="M 518.6133 59.1531 L 914.421 59.1531 L 914.421 79.1531 L 518.6133 79.1531 L 518.6133 59.1531 Z" fill="#c00001" fill-opacity="undefined" stroke="#ccc" stroke-width="0" paint-order="stroke" stroke-opacity="undefined" stroke-dasharray="" stroke-linecap="butt" stroke-linejoin="miter" stroke-miterlimit="10" clip-path="none"></path><path d="M 518.6133 26.3844 L 968.4105999999999 26.3844 L 968.4105999999999 46.3844 L 518.6133 46.3844 L 518.6133 26.3844 Z" fill="#c00001" fill-opacity="undefined" stroke="#ccc" stroke-width="0" paint-order="stroke" stroke-opacity="undefined" stroke-dasharray="" stroke-linecap="butt" stroke-linejoin="miter" stroke-miterlimit="10" clip-path="none"></path><path d="M -5 -5 L 101.9375 -5 L 101.9375 19 L -5 19 L -5 -5 Z" fill="rgba(0,0,0,0)" fill-opacity="1" stroke="#ccc" stroke-width="0" paint-order="stroke" stroke-opacity="1" stroke-dasharray="" stroke-linecap="butt" stroke-linejoin="miter" stroke-miterlimit="10" transform="matrix(1,0,0,1,822.0625,5)" clip-path="none"></path><path d="M 3.5 0 L 21.5 0 Q 25 0 25 3.5 L 25 10.5 Q 25 14 21.5 14 L 3.5 14 Q 0 14 0 10.5 L 0 3.5 Q 0 0 3.5 0 Z" fill="#c00001" fill-opacity="1" stroke="none" transform="matrix(1,0,0,1,822.0625,5)" clip-path="none"></path><text fill="#333" fill-opacity="1" stroke="none" transform="matrix(1,0,0,1,822.0625,5)" alignment-baseline="middle" x="30" y="7" clip-path="none" style="font-style: normal; font-variant: normal; font-weight: normal; font-stretch: normal; font-size: 12px; line-height: normal; font-family: &quot;Microsoft YaHei&quot;;"><tspan alignment-baseline="middle" text-anchor="start" x="30" y="7">-lg(P-value)</tspan></text></svg>